<svg width="162" height="43" viewBox="0 0 162 43" fill="none" xmlns="http://www.w3.org/2000/svg">
    <path fill-rule="evenodd" clip-rule="evenodd" d="M52.9957 18.9745C53.3237 16.9644 53.6793 14.8594 54.0942 13.2073C56.5005 13.1081 56.6467 13.1081 57.2986 13.1081C58.16 13.1081 58.9898 13.1728 59.6734 13.3367C60.7402 13.5308 61.9888 13.1081 62.1666 12.2367C62.2851 11.4603 61.4554 10.5502 60.5031 10.52C60.0566 10.5545 59.5548 10.5847 58.7211 10.6192H58.2153C57.7412 10.6192 57.026 10.6537 56.2871 10.6537C54.9793 10.6882 53.5568 10.6882 53.1103 10.6882H51.7432C50.5538 10.6537 49.7833 11.5638 49.7833 12.5042C49.7517 13.41 49.6332 14.7386 49.2499 16.8781L47.2901 28.3175C47.0807 29.6461 46.8436 30.8798 46.5789 31.6864C46.3418 32.562 47.1716 33.4032 48.2107 33.4032H48.7442C49.9335 33.4032 50.9095 32.5922 51.0003 31.5872C51.0596 31.0351 51.1505 30.2888 51.3283 29.2536L52.3675 22.8351H54.8331C56.0224 22.8351 56.702 22.8696 57.3263 22.9903C58.6026 23.219 59.6417 22.5115 59.8788 21.5065C59.9381 20.7301 58.8989 20.0485 57.9506 20.1779H57.8597C57.8281 20.1779 57.7412 20.2124 57.6819 20.2124C57.4725 20.2469 57.2354 20.2771 56.9707 20.3116C56.2279 20.4109 55.485 20.4411 54.596 20.4411C54.1495 20.4411 53.6753 20.4411 53.051 20.4065H52.7824C52.7824 20.1477 52.8416 19.9536 52.8732 19.6948C52.9048 19.4317 52.9641 19.2031 52.9957 18.9745Z" fill="#A82827" />
    <path fill-rule="evenodd" clip-rule="evenodd" d="M71.9936 16.9342C72.2623 16.0283 71.3693 15.1182 70.2709 15.4762C69.6782 15.7048 69.0539 15.9938 68.5481 16.3518C67.8646 16.8695 67.2995 17.5165 66.8254 18.198C66.857 18.0341 66.9163 17.9392 66.9439 17.7753C67.0032 17.5467 67.0032 17.2232 67.0348 17.1283C67.0941 16.3518 66.0865 15.7005 65.0157 15.9291H65.0473C64.8379 15.9636 64.5732 15.9938 64.2768 16.0283C63.2376 16.1922 62.7319 16.9989 62.7911 17.8098C62.8227 18.556 62.7319 19.6258 62.4355 21.3728L60.9815 30.1249C60.9222 30.5476 60.772 31.13 60.6258 31.6821C60.4164 32.5577 61.3687 33.304 62.4079 33.304H62.558C63.7157 33.3385 64.6956 32.5577 64.7826 31.5872C64.9327 29.4822 65.6123 25.2334 66.0588 23.5511C66.8609 20.3418 68.3743 18.9831 69.5043 18.6596H69.4727C70.5988 18.3619 71.7289 17.7753 71.9936 16.9342Z" fill="#A82827" />
    <path fill-rule="evenodd" clip-rule="evenodd" d="M80.3936 15.2475C78.2559 15.2475 75.3478 16.1533 73.2971 18.9442C72.2895 20.2727 70.6853 23.1887 70.6853 26.6567C70.7446 30.7071 72.0208 33.7223 77.1851 33.8819C78.4337 33.8819 79.3504 33.718 80.0933 33.5584C81.1601 33.2349 81.7844 32.5231 81.9938 31.8071C82.1716 31.0954 81.2826 30.6079 80.5398 30.966C79.8285 31.2895 78.9355 31.613 77.8687 31.613C75.2846 31.6475 74.8697 29.1155 74.8697 27.5626C74.8697 26.9458 74.9013 26.5273 74.929 26.3979C77.1851 26.2987 79.1726 26.1693 81.0455 25.1341C82.0847 24.5819 83.3926 23.6416 84.1038 22.477C84.7558 21.377 85.1706 20.1131 85.1706 19.203C85.1746 16.9686 83.5704 15.2475 80.3936 15.2475ZM79.8918 22.5417C78.4061 24.0643 76.6873 25.2333 75.0515 25.4921C75.2885 22.8005 76.0906 20.3374 77.0113 19.1383C78.2875 17.5164 79.2991 17.2921 79.7416 17.2921C80.4844 17.2921 81.1087 17.9391 81.1087 19.3324C81.1087 20.661 80.5753 21.7954 79.8918 22.5417Z" fill="#A82827" />
    <path fill-rule="evenodd" clip-rule="evenodd" d="M90.2208 23.5129C90.3709 22.6372 90.5487 21.6667 90.6949 20.791C90.8728 19.8205 91.0506 18.8456 91.2007 18.0692C91.2323 17.8751 91.26 17.7759 91.2916 17.6163C91.7065 17.6163 92.1806 17.6163 92.7457 17.6508C93.7256 17.6508 94.5869 17.1979 94.7648 16.4861C94.8833 15.8391 94.1721 15.1878 93.2791 15.287C92.9827 15.3215 92.6271 15.3215 92.2399 15.3215C92.0897 15.3215 91.9435 15.356 91.7934 15.356H91.7025C91.9119 13.9627 92.0897 13.1863 92.3861 12.1166C92.5955 11.2754 91.4971 10.6586 90.4579 10.8872C89.1816 11.2107 88.2926 12.1166 88.2017 13.1561C88.1424 13.8031 88.0832 14.4847 87.933 15.2956C87.1625 15.2956 86.5975 15.8132 86.5066 16.4603C86.4157 16.9779 86.8938 17.4308 87.4865 17.5602L85.6176 28.3181C85.4674 29.224 85.3489 29.94 85.3489 30.5525C85.3489 31.1996 85.586 31.7819 86.0324 32.4979C86.4789 33.1795 87.7552 33.7963 89.7427 33.7963C89.9521 33.7963 90.3077 33.7963 90.5132 33.7618C91.58 33.5979 92.3545 32.8861 92.5323 32.0752C92.6232 31.5231 91.8487 30.9753 91.0466 31.1047C90.8095 31.1694 90.6001 31.2039 90.4223 31.2039C89.7703 31.2039 89.2962 30.7165 89.2962 29.5173C89.2962 28.5769 89.5333 27.119 89.8612 25.4324C89.9561 24.9406 90.1023 24.2591 90.2208 23.5129Z" fill="#A82827" />
    <path fill-rule="evenodd" clip-rule="evenodd" d="M103.434 15.2475C101.296 15.2475 98.3883 16.1533 96.3376 18.9442C95.33 20.2727 93.7258 23.1887 93.7258 26.6567C93.7851 30.7071 95.0614 33.7223 100.226 33.8819C101.474 33.8819 102.391 33.718 103.134 33.5584C104.201 33.2349 104.825 32.5231 105.034 31.8071C105.212 31.0954 104.323 30.6079 103.58 30.966C102.869 31.2895 101.976 31.613 100.909 31.613C98.3251 31.6475 97.9102 29.1155 97.9102 27.5626C97.9102 26.9458 97.9418 26.5273 97.9695 26.3979C100.226 26.2987 102.213 26.1693 104.086 25.1341C105.125 24.5819 106.433 23.6416 107.144 22.477C107.796 21.377 108.211 20.1131 108.211 19.203C108.211 16.9686 106.611 15.2475 103.434 15.2475ZM102.928 22.5417C101.443 24.0643 99.7239 25.2333 98.088 25.4921C98.3251 22.8005 99.1272 20.3374 100.048 19.1383C101.324 17.5164 102.336 17.2921 102.778 17.2921C103.521 17.2921 104.145 17.9391 104.145 19.3324C104.145 20.661 103.612 21.7954 102.928 22.5417Z" fill="#A82827" />
    <path fill-rule="evenodd" clip-rule="evenodd" d="M118.808 21.6315C119.697 21.5021 120.887 21.1786 121.926 20.4669C123.913 19.0391 124.866 16.8392 124.866 15.0534C124.866 14.0483 124.478 12.9484 123.886 12.0727C122.728 10.5501 120.499 10.4509 118.512 10.4509C117.947 10.4509 117.204 10.4854 116.611 10.5156C116.315 10.5156 115.987 10.5501 115.691 10.5501C114.889 10.5846 114.118 10.6148 113.553 10.6148H113.138C111.98 10.5803 111.269 11.4904 111.297 12.3963C111.297 13.2072 111.206 14.3417 110.91 15.9592L108.653 28.2398C108.622 28.3692 108.594 28.5633 108.594 28.6927C108.326 30.0558 108.12 30.9918 107.97 31.6734C107.82 32.5792 108.653 33.5196 109.752 33.5196H110.139C110.763 33.5196 111.265 33.5541 111.803 33.5843H111.98C112.632 33.6188 113.348 33.649 114.328 33.649C119.642 33.649 121.305 31.4448 122.017 30.5389C122.965 29.2406 123.53 27.8818 123.53 26.3893C123.53 22.8954 120.681 21.9895 118.808 21.6315ZM115.517 12.819C115.576 12.7845 115.635 12.7845 115.695 12.7845C116.347 12.6853 116.943 12.6206 117.595 12.6206C118.812 12.6206 120.535 12.8794 120.535 15.571C120.535 17.0937 119.824 19.0391 118.279 19.8155C117.654 20.1088 117.003 20.2684 116.497 20.3331C115.872 20.3978 115.161 20.4323 114.806 20.4323C114.628 20.4323 114.418 20.3978 114.272 20.3978H114.181L115.517 12.819ZM114.209 31.3542C113.17 31.3542 112.486 31.255 112.486 30.1205C112.486 29.797 112.545 29.3441 112.696 28.5331L113.703 23.055C115.098 23.0205 115.572 23.0205 115.991 23.0205C116.761 23.0205 119.077 23.0205 119.077 26.1952C119.077 27.9206 118.306 31.3542 114.209 31.3542Z" fill="#1E1A19" />
    <path fill-rule="evenodd" clip-rule="evenodd" d="M135.968 16.934C136.237 16.0281 135.344 15.118 134.245 15.476C133.653 15.7046 133.028 15.9936 132.523 16.3517C131.839 16.8693 131.274 17.5163 130.8 18.1978C130.832 18.0339 130.891 17.939 130.919 17.7751C130.978 17.5465 130.978 17.223 131.009 17.1281C131.069 16.3517 130.061 15.7003 128.99 15.9289H129.022C128.812 15.9634 128.548 15.9936 128.251 16.0281C127.212 16.1921 126.706 16.9987 126.766 17.8096C126.797 18.5559 126.706 19.6256 126.41 21.3726L124.956 30.1247C124.897 30.5474 124.747 31.1298 124.6 31.6819C124.391 32.5575 125.343 33.3038 126.382 33.3038H126.533C127.69 33.3383 128.67 32.5575 128.757 31.587C128.907 29.482 129.587 25.2332 130.033 23.5509C130.836 20.3417 132.349 18.9829 133.479 18.6594H133.447C134.573 18.3618 135.7 17.7751 135.968 16.934Z" fill="#1E1A19" />
    <path fill-rule="evenodd" clip-rule="evenodd" d="M148.348 15.8342L147.874 16.0283C147.012 15.6703 146.092 15.3467 144.697 15.3467C141.935 15.3467 140.216 16.5804 139.501 17.1627C135.166 20.9241 134.364 26.8207 134.364 28.3132C134.364 32.0099 136.798 33.7568 139.264 33.7568C141.579 33.7568 143.152 31.7812 144.369 29.9653C144.25 30.6468 144.159 31.393 144.132 31.9408C144.073 32.7518 144.962 33.4333 146.001 33.3988C147.008 33.3643 147.988 32.782 147.988 31.971C147.988 31.0307 148.225 28.7963 148.64 26.1392L149.174 22.9644C149.679 19.9838 150.003 18.3317 150.213 17.2619C150.367 16.382 149.419 15.4761 148.348 15.8342ZM145.321 22.4425C144.815 25.6819 144.314 27.5626 143.511 28.7618C142.504 30.3837 141.405 30.9013 140.544 30.9013C139.058 30.9013 138.497 29.3139 138.497 27.1097C138.497 24.4526 139.687 17.5164 144.199 17.5164C144.91 17.5164 145.566 17.7451 146.1 17.9392L145.321 22.4425Z" fill="#1E1A19" />
    <path fill-rule="evenodd" clip-rule="evenodd" d="M160.641 15.5408H160.672C160.139 15.3769 159.515 15.3122 158.626 15.3122C157.409 15.3122 155.093 15.5408 153.58 16.7702C152.126 18.034 151.027 19.6559 151.027 21.4029C151.027 23.4777 152.778 24.6423 153.698 25.229L155.54 26.3936C156.282 26.8811 156.994 27.3987 156.994 28.6625C156.994 29.9609 155.955 31.3197 153.995 31.3197C152.956 31.3197 152.272 31.091 151.707 30.802H151.739C150.818 30.3146 149.633 30.7028 149.245 31.7726C149.067 32.4843 149.779 33.3298 150.818 33.6188C151.383 33.7482 152.213 33.8474 153.015 33.8474C154.382 33.8474 156.579 33.7482 158.329 32.3549C160.198 30.8624 160.854 29.0162 160.854 27.623C160.854 25.7121 159.4 24.7372 158.448 24.1247L156.962 23.1197C155.982 22.5028 155.034 21.9205 155.034 20.3978C155.034 19.1685 156.041 17.6113 157.942 17.6113C158.448 17.6113 158.95 17.7752 159.396 17.9995H159.364C159.633 18.1634 159.989 18.2281 160.372 18.2281C161.024 18.2281 161.621 17.9693 161.826 17.4517C162.122 16.7055 161.617 15.7694 160.641 15.5408Z" fill="#1E1A19" />
    <path fill-rule="evenodd" clip-rule="evenodd" d="M32.5385 6.47392C32.416 6.35314 32.2935 6.23236 32.1671 6.11158C32.1236 6.06845 32.0802 6.02962 32.0327 5.98649C31.8707 5.83552 31.7048 5.68454 31.5349 5.53357C31.5112 5.512 31.4875 5.49044 31.4598 5.46887C31.2978 5.32652 31.1319 5.18418 30.962 5.04614C30.4522 4.63205 29.9228 4.24814 29.3775 3.89443C29.338 3.89875 28.4213 3.29054 27.9708 3.06192L28.927 1.71179C24.636 2.12589 21.6488 2.75135 17.8279 4.20501C19.4401 7.00879 20.578 10.7831 21.4671 13.7077L21.4829 13.7551L23.34 10.8651C27.3426 12.4481 30.2073 16.6366 30.2073 21.554C30.2073 27.8302 25.5448 32.9201 19.7957 32.9201C19.5428 32.9201 19.2939 32.9072 19.0489 32.8856C19.7166 34.8483 20.5029 36.8454 21.4592 38.5061C18.5155 39.6276 16.0617 40.2531 13.1299 40.6758C15.1964 41.5299 17.4368 42.0001 19.7759 42.0001C30.144 42.0001 38.5484 32.8252 38.5484 21.5065C38.5484 15.5625 36.2329 10.2181 32.5385 6.47392Z" fill="#BBBCBD" stroke="#BBBCBD" stroke-width="0.1343" stroke-miterlimit="22.9256" />
    <path fill-rule="evenodd" clip-rule="evenodd" d="M17.8008 28.9516L15.8647 31.9711C15.8449 32.0013 15.8291 32.0228 15.8093 32.0487C12.0398 30.3406 9.38459 26.2858 9.38459 21.5496C9.38459 16.231 12.7313 11.7709 17.2476 10.5286C17.7336 10.3862 18.2354 10.2827 18.7491 10.218C19.2904 10.1533 19.8238 10.136 20.3494 10.1619C19.6579 8.09143 18.8321 5.96055 17.8245 4.20063C20.6101 3.13951 22.9493 2.52267 25.6757 2.09995C24.2414 1.59095 22.8387 1.2545 21.4755 1.08627C20.9144 1.03019 20.3454 1 19.7725 1C9.40434 1 1 10.1749 1 21.4935C1 29.2363 4.93151 35.974 10.7359 39.4593C10.8466 39.5283 11.0362 39.6362 11.1508 39.6664L10.3526 40.9906C14.6437 40.5722 17.6309 39.9468 21.4518 38.4931C19.8396 35.6893 18.7017 31.915 17.8126 28.9904L17.8008 28.9516Z" fill="#60595D" stroke="#60595D" stroke-width="0.1343" stroke-miterlimit="22.9256" />
    <path fill-rule="evenodd" clip-rule="evenodd" d="M41.2491 21.5039C41.251 26.9396 39.1328 32.1534 35.3605 35.9982C31.5882 39.8429 26.471 42.0035 21.1347 42.0046C16.6847 42.0171 12.3589 40.511 8.84741 37.7267L14.6833 37.5045C14.8616 37.4973 15.0033 37.3496 15.0065 37.168L15.238 30.8375C16.9938 31.9963 19.0426 32.6096 21.1347 32.6028C25.5462 32.6036 29.5224 29.8931 31.2041 25.7386C32.8858 21.5841 31.9406 16.8066 28.8106 13.6398L27.2886 15.1944C27.1961 15.2875 27.0581 15.3155 26.9376 15.2657C26.8128 15.2171 26.7308 15.0946 26.7318 14.9585L26.8347 12.0612L27.0591 5.87644C27.0587 5.78644 27.0961 5.70058 27.162 5.64058C27.2207 5.57751 27.3011 5.53996 27.3863 5.53575L33.4579 5.29989L36.2879 5.19507C36.4175 5.19716 36.5349 5.27474 36.5894 5.39529C36.6356 5.52059 36.6085 5.66171 36.5194 5.76008L35.3257 6.97606C39.1245 10.8193 41.2572 16.05 41.2491 21.5039Z" fill="#BEBFC1" />
    <path fill-rule="evenodd" clip-rule="evenodd" d="M33.4607 5.30779L27.3891 5.54364C27.3039 5.54786 27.2235 5.5854 27.1648 5.64847C27.0989 5.70847 27.0615 5.79433 27.0619 5.88433L26.8375 12.069C25.124 10.9843 23.1457 10.4118 21.1282 10.417C16.7377 10.4186 12.7771 13.1046 11.082 17.2301C9.38688 21.3557 10.2885 26.1146 13.3689 29.3014L14.7736 27.8631C14.8689 27.7698 15.009 27.7419 15.1317 27.7919C15.2552 27.8422 15.3375 27.9638 15.3375 28.099L15.2346 30.8454L15.0062 37.1696C15.003 37.3512 14.8613 37.4989 14.6831 37.5061L8.84713 37.7283L5.7784 37.8499C5.64709 37.8525 5.52754 37.7731 5.47688 37.6497C5.42785 37.5246 5.45522 37.3819 5.54686 37.2849L6.85277 35.9473C-0.629689 28.2814 -0.981636 16.0136 6.05008 7.9169C13.0818 -0.18089 25.0778 -1.32244 33.4607 5.30779Z" fill="#625D60" />
</svg>
