<svg xmlns="http://www.w3.org/2000/svg" xmlns:xlink="http://www.w3.org/1999/xlink" width="1152" height="866" stroke="#000" stroke-linecap="round" stroke-linejoin="round" fill="#fff" fill-rule="evenodd">
    <defs>
        <filter x="-2.4%" y="-2.4%" width="104.8%" height="104.8%" id="A">
            <feOffset in="SourceAlpha"/>
            <feGaussianBlur stdDeviation="2"/>
            <feColorMatrix values="0 0 0 0 0   0 0 0 0 0   0 0 0 0 0  0 0 0 0.3 0"/>
        </filter>
        <path d="M128 3c69.0909 0 125 55.9091 125 125s-55.9091 125-125 125S3 197.0909 3 128 58.9091 3 128 3z" id="B"/>
    </defs>
    <g transform="translate(724 434.9611)">
        <svg viewBox="0 0 256 256" preserveAspectRatio="xMidYMid" width="426" height="426">
            <g mask="url(#kqmswnlm3ka)">
                <use fill="#000" filter="url(#A)" xlink:href="#B"/>
                <use xlink:href="#B"/>
            </g>
            <path d="M128 7.386c66.6667 0 120.614 53.9473 120.614 120.614S194.6667 248.614 128 248.614 7.386 194.6667 7.386 128 61.3333 7.386 128 7.386z" fill="#5c5c5e" mask="url(#kqmswnlm3ka)"/>
            <path d="M192.0351 181.0702c-4.386 13.5965-10.9649 23.6842-20.1755 31.1403s-21.4912 11.4035-36.8421 12.7193l-3.0701-20.1754c10.0877-1.3158 17.5438-3.5088 22.3684-7.0176 1.7544-1.3157 5.2631-5.2631 5.2631-5.2631L123.1754 75.807h30.2632l21.0526 87.2807 22.3684-87.2807h29.386l-34.2105 105.2632zM86.3333 71.8596c7.0176 0 13.5965.8772 18.8597 3.0702 5.7017 2.193 10.9649 5.2632 16.2281 9.6491l-12.2807 16.6667c-3.5088-2.6316-7.0176-4.386-10.0878-5.7017s-7.0175-1.7544-10.5263-1.7544c-14.9123 0-22.3684 11.4035-22.3684 34.6491 0 11.8421 1.7544 20.1754 5.7017 25 3.9474 5.2632 9.2106 7.4561 16.6667 7.4561 3.5088 0 7.0176-.4386 10.0877-1.7543s6.579-3.0702 10.9649-5.7018l12.2807 17.5439c-10.0877 8.3333-21.4912 12.2807-34.6491 12.2807-10.5263 0-19.2982-2.193-27.193-6.579-7.4561-4.386-13.5964-10.9649-17.5438-19.2982S36.3333 139.4035 36.3333 128c0-10.9649 2.193-21.0526 6.1404-29.386 3.9474-8.7719 10.0877-15.3508 17.5438-20.1754 7.4562-3.9474 16.2281-6.579 26.3158-6.579z" mask="url(#kqmswnlm3ka)"/>
        </svg>
    </g>
    <g stroke="none">
        <g fill-rule="nonzero">
            <path d="M368.3051 765.7667l-170.8116 96.6264v-75.2388l106.4116-58.5527zm11.6948-10.5753v-202.024l-62.4773 36.1115v129.88zM11.6947 765.7667L182.48 862.3931v-75.2388L76.0026 728.5885zM0 755.1914v-202.024l62.4773 36.1115v129.88zm7.3224-215.141L182.48 440.9612v72.7233L69.2202 575.9511zm365.3288 0l-175.1577-99.0892v72.7233l113.2598 62.2008z" fill="#8ed6fb"/>
            <path d="M182.48 773.3261L77.4644 715.5504V601.1843L182.48 661.8179zm15.0135 0l105.0287-57.723V601.0263l-105.0287 60.7916zm-7.5068-115.8938zM84.5761 587.9619l105.4106-57.9337 105.4107 57.9469-105.4107 60.8442z" fill="#1c78c0"/>
        </g>
        <path d="M729.1102 670.0707c0-23.1245-16.3915-42.5804-38.4-48.1388L740 480.9612H495.7299l49.404 141.4152c-21.3207 6.0034-37.0248 25.1256-37.0248 47.8056 0 16.6762 8.5977 31.4626 21.6648 40.5788-5.1581 7.1155-11.1187 13.6747-17.8815 19.9008-12.7243 11.5617-26.8228 20.4561-42.0681 26.3481-13.7554-9.0053-19.716-24.9029-14.3285-39.1334 20.977-6.2261 36.2218-25.237 36.2218-47.5834 0-27.4603-23.0396-49.6954-51.2377-49.6954-28.3132 0-51.3528 22.3464-51.3528 49.8068 0 13.5633 5.7312 26.015 14.9012 34.9089l-2.4072 4.7804c-7.6796 15.3422-16.3916 32.6856-19.7156 52.1414-6.6489 38.9117 4.2413 70.152 30.4906 87.8285 14.7869 9.8947 31.0642 14.8978 48.6015 14.8978 30.1473 0 60.7526-14.6751 90.3264-28.9056 21.0912-10.117 42.8707-20.6789 64.3056-25.7928 7.9089-1.8898 16.1625-3.002 24.8745-4.2245 17.652-2.4461 35.8776-5.0031 52.2692-14.2306 19.1429-10.7841 32.2104-28.7947 35.9933-49.4731 2.8656-15.8981 0-31.9071-7.3364-45.9154 4.9287-7.6709 7.68-16.6766 7.68-26.3486zm-22.3521 0c0 15.4531-12.9528 28.0161-28.886 28.0161s-28.8859-12.563-28.8859-28.0161c0-5.0031 1.3757-9.7834 3.7824-13.897.9168-1.5562 2.0635-3.1128 3.2093-4.4467s2.5219-2.5575 4.0123-3.6691l.1147-.1114c.9173-.6667 1.9484-1.3339 2.9804-2.0006 0 0 .1142 0 .1142-.1114.4589-.2227.9173-.5558 1.3762-.7786.1142 0 .2289-.1108.3432-.1108.4588-.2223 1.032-.4445 1.6051-.6672s1.1462-.4445 1.6046-.6672c.1152 0 .2295-.1109.3442-.1109.4584-.1114.9173-.3336 1.3752-.4445.1152 0 .3441-.1114.4584-.1114l1.6051-.3336h.1147l1.7194-.3336c.1147 0 .3437 0 .4589-.1113.4579 0 .9163-.1109 1.3752-.1109h.5731c.5731 0 1.1462-.1114 1.8341-.1114h1.4899c.4584 0 .8025 0 1.2605.1114h.2299c.9168.1109 1.8341.2222 2.7504.4445 13.068 2.6683 23.0405 14.0083 23.0405 27.5717zM527.7108 503.1962H708.019l-41.3803 118.4021c-1.7198.3336-3.4392.889-5.1586 1.4453l-43.558-86.161-43.6728 85.6047c-1.7189-.5554-3.5535-.889-5.3876-1.2226l-41.1509-118.0685zm81.9581 157.2025c-2.1777-10.4511-7.68-19.7895-15.4742-26.6823l23.7274-46.4712 23.9572 47.4715c-7.1068 6.8933-12.2654 15.6759-14.3284 25.682h-17.882zm-57.4281-17.5661l1.6046-.3336h.3442c.4588-.1109.9172-.1109 1.3752-.2223h.4588c.4584 0 .8021-.1113 1.261-.1113h.4584 1.7194 1.7193.5736c.4579 0 .8021.1113 1.1458.1113.2294 0 .3441 0 .5731.1114.4584.1109.8026.1109 1.2614.2222.1143 0 .229 0 .458.1109l1.6051.3341h.1142c.4589.1109.9173.2222 1.3757.4445.1147 0 .2295.1109.4584.1109.3442.1113.8031.2227 1.1463.4449.1147 0 .2289.1109.3441.1109.4584.2227.9168.3341 1.3752.5563h.1147c.5732.2223 1.032.4445 1.4904.7781h.1148c.4584.2222.9168.5558 1.3752.7781.1147 0 .1147.1113.2299.1113.4579.2223.8021.5559 1.2605.7781l.1147.1114c1.3752 1.0003 2.6361 2.112 3.8971 3.2241l.1142.1109c1.1468 1.2231 2.293 2.5575 3.2098 4.0027 2.9803 4.4468 4.7002 9.6721 4.7002 15.3418 0 15.4536-12.9533 28.0162-28.886 28.0162s-28.8864-12.5626-28.8864-28.0162c-.1147-13.0075 9.1704-24.0134 21.7791-27.1267zm-112.7929-.7781c15.9337 0 28.886 12.563 28.886 28.0162s-12.9523 28.0161-28.886 28.0161-28.8859-12.563-28.8859-28.0161 12.9528-28.0162 28.8859-28.0162zm266.6223 96.3888c-2.5219 14.2306-11.5771 26.6823-24.8741 34.1309-12.4944 7.0042-27.8539 9.2275-44.0164 11.4514-8.8268 1.223-18.1114 2.5569-27.0524 4.6694-23.8425 5.6698-46.7678 16.7875-69.0053 27.4603-28.4275 13.6743-55.2504 26.5709-80.1244 26.5709-12.9529 0-24.53-3.5577-35.534-11.0064-25.2182-16.8984-23.9573-48.5837-20.9769-65.927 2.7513-16.2317 10.4308-31.4626 17.7672-46.0268.4584-.8894.8025-1.6675 1.2609-2.5569 2.5219.8894 5.1581 1.5561 7.9095 2.0011-4.3556 23.569 8.0236 47.9165 32.0952 59.9237l4.356 2.2234 4.6997-1.6676c20.0601-6.8928 38.6294-18.1219 55.0209-33.1305 9.2847-8.449 17.1936-17.5656 23.8421-27.4599 2.6366.4445 5.2728.5554 7.9099.5554 23.8421 0 43.9023-15.8981 49.633-37.2437h19.2576c5.7317 21.457 25.7909 37.2437 49.6334 37.2437 9.5137 0 18.3404-2.557 25.9057-6.8928 2.9803 8.3381 3.8971 17.0097 2.2924 25.6814z" fill="#99424f"/>
        <path d="M725.2123 220.7282c0-25.6773 20.6718-46.3491 46.3491-46.3491s46.3498 20.6718 46.3498 46.3491-20.6717 46.3498-46.3498 46.3498-46.3491-20.6717-46.3491-46.3498z" fill="#00d8ff"/>
    </g>
    <g stroke="#00d8ff" fill="none" stroke-width="2.7341">
        <path d="M771.5626 126.4907c62.2302 0 120.0404 8.9292 163.6288 23.9353 52.5184 18.0806 84.8087 45.4869 84.8087 70.3021 0 25.8695-34.2213 54.975-90.6187 73.6614-42.6379 14.135-98.7467 21.5006-157.8188 21.5006-60.5652 0-117.9172-6.9219-161.0361-21.6563-54.5524-18.6459-87.4006-48.1382-87.4006-73.5057 0-24.614 30.8304-51.8079 82.6108-69.861 43.7506-15.2445 102.989-24.3764 165.8267-24.3764z"/>
        <path d="M689.5255 173.8811c31.0892-53.9077 67.7037-99.526 102.4789-129.7896 41.8991-36.4628 81.7714-50.7422 103.268-38.346 22.4033 12.9185 30.5279 57.1095 18.5404 115.2985-9.0549 43.9947-30.7055 96.2819-60.2164 147.4549-30.2579 52.4657-64.9041 98.6907-99.2057 128.6728-43.4043 37.943-85.3682 51.6741-107.3425 39.0005-21.3238-12.2876-29.4785-52.5881-19.2492-106.4634 8.6429-45.521 30.3341-101.3937 61.7168-155.8285z"/>
        <path d="M689.6036 268.6363c-31.1776-53.8468-52.4041-108.3611-61.2546-153.6032-10.6656-54.5094-3.1248-96.1773 18.3523-108.619 22.3805-12.9566 64.7232 2.073 109.1494 41.5204 33.5887 29.8231 68.08 74.6848 97.6769 125.8099 30.3447 52.4154 53.0877 105.5096 61.935 150.2099 11.1952 56.554 2.1248 99.7661-19.821 112.4754-21.3019 12.3321-60.2838-.7243-101.8504-36.4946-35.1198-30.2108-72.6938-76.9175-104.1787-131.2996z"/>
    </g>
    <g stroke-linejoin="miter" stroke-width=".1343">
        <path d="M448.1489 60.0572l-3.9821-3.8849-1.441-1.3412-5.3373-4.8561-.8051-.6937-5.3373-4.5324c-5.4661-4.4398-11.1421-8.556-16.9887-12.3484-.4236.0463-10.2523-6.4748-15.0824-8.926l10.2522-14.4758C363.42 13.4386 331.392 20.1446 290.425 35.7305c17.2856 30.0615 29.4861 70.5288 39.0188 101.8857l.1693.5082 19.9114-30.9859c42.9152 16.9726 73.6298 61.8808 73.6298 114.6041 0 67.292-49.9903 121.8648-111.6309 121.8648-2.7116 0-5.3802-.1383-8.007-.3699 7.1589 21.0437 15.5894 42.4561 25.8426 60.2618-31.5616 12.0245-57.8707 18.7309-89.3049 23.263 22.1565 9.1575 46.1776 14.1989 71.2569 14.1989 111.1646 0 201.2747-98.3713 201.2747-219.7279 0-63.7303-24.8263-121.0318-64.4368-161.1761z" stroke="#bbbcbd" fill="#bbbcbd"/>
        <path d="M290.1345 301.058l-20.7584 32.3744-.5941.832c-40.4157-18.3139-68.8843-61.7886-68.8843-112.5691 0-57.0248 35.8827-104.8451 84.3056-118.1647 5.2107-1.5268 10.5909-2.6365 16.0987-3.3302 5.8037-.6937 11.5226-.8792 17.158-.6015-7.4141-22.1991-16.2682-45.046-27.0714-63.9154 29.8667-11.3771 54.947-17.9908 84.1789-22.5231-15.3783-5.4574-30.4177-9.0647-45.0337-10.8684-6.016-.6013-12.1167-.925-18.2592-.925C200.1095 1.367 110 99.7383 110 221.0938c0 83.0167 42.1527 155.2568 104.3862 192.6254 1.1869.7399 3.2197 1.8967 4.4485 2.2205l-8.5582 14.1978c46.0084-4.486 78.0364-11.1914 119.0032-26.7777-17.2856-30.0617-29.4859-70.5289-39.0188-101.8858l-.1264-.416z" stroke="#60595d" fill="#60595d"/>
    </g>
</svg>